<?xml version="1.0" encoding="utf-8"?>
<!-- Generator: Adobe Illustrator 27.1.1, SVG Export Plug-In . SVG Version: 6.00 Build 0)  -->
<svg version="1.1" id="Layer_1" xmlns="http://www.w3.org/2000/svg" xmlns:xlink="http://www.w3.org/1999/xlink" x="0px" y="0px"
	 viewBox="0 0 1367.5 583.4" style="enable-background:new 0 0 1367.5 583.4;" xml:space="preserve">
<style type="text/css">
	.st0{fill:#EDEDED;}
	.st1{fill:#A10E00;}
	.st2{fill:#2E2E2E;}
</style>
<g>
	<g>
		<path class="st0" d="M1008.5,419.3h-60.1v115.2h67.5l-2.9,17.8H929V287.9h83v17.9h-63.6v95.6h60.1V419.3L1008.5,419.3z"/>
		<path class="st0" d="M1075.5,552.3V450.1c0-2.6-0.4-4.2-0.9-5.8l-48.1-156.4h21.2c14.9,51.2,33.3,113.6,37.9,134.7h0.4
			c4.9-21.5,23.9-86.5,37.6-134.7h20.5l-48.3,157c-0.4,1.6-0.8,3.4-0.8,6.4v101L1075.5,552.3L1075.5,552.3z"/>
		<path class="st0" d="M1242.4,419.3h-60.1v115.2h67.6l-2.9,17.8h-84.1V287.9h83v17.9h-63.6v95.6h60.1L1242.4,419.3L1242.4,419.3z"
			/>
		<path class="st0" d="M1286.2,480.2v14.6c0,28.5,10.5,43.5,31.1,43.5s30.8-12.8,30.8-49.9c0-32.7-7.3-46.9-34.8-68.1
			c-28.2-21.9-41.9-34.5-41.9-73.4c0-32.6,9.7-62.6,46.9-62.3c32.8,0.3,45.2,20.6,45.2,57.5v11h-19.3v-10.5
			c0-24.4-5.1-40.7-26.3-40.7s-27,18.9-27,41.9c0,28.6,5.8,38.1,30.8,57.4c34.7,26.7,46,41.1,46,84.8c0,36.9-8.9,69.6-50.2,69.6
			c-38.4,0-50.6-25.7-50.6-60.6v-14.8L1286.2,480.2L1286.2,480.2z"/>
	</g>
	<g>
		<path class="st0" d="M40.8,474.5v16.3c0,19.7,5.9,30.6,21.4,30.6s20-15.1,20-32.2c0-28.4-6.1-37.2-34.5-59.6
			c-28.5-22.5-43.7-36.8-43.7-76c0-34.9,10.5-70,58.3-70c48.8,0,56.3,34.8,56.3,63.5v14.1H78.2v-13c0-18.4-3.1-29.5-16.7-29.5
			s-16.7,11.5-16.7,29c0,18.7,3.5,27.8,26.8,44.8c39.6,29.3,51.7,46.2,51.7,90.5c0,37.5-13.1,73.1-62.5,73.1S0,525,0,490.2v-15.7
			H40.8z"/>
		<path class="st0" d="M274.9,358.1v123.5c0,50.7-21.5,74.6-66.3,74.6s-62.3-24.6-62.3-73.9V357.8c0-50.6,25.5-73.7,64.9-73.7
			S274.9,307.2,274.9,358.1L274.9,358.1z M187.8,354.1v133c0,22,7.9,32.3,22.6,32.3c15.8,0,22.9-9.6,22.9-32.9V353.8
			c0-21-6.4-32.6-23-32.6C195.7,321.2,187.8,331.7,187.8,354.1L187.8,354.1z M259.5,527.5l34.7,27.5l-23.9,28.5l-43.3-34
			L259.5,527.5L259.5,527.5z"/>
		<path class="st0" d="M345.1,287.9V489c0,19.3,6.3,30.3,22.1,30.3s21.4-12.4,21.4-30.2V287.9h40.8v200.3c0,41.7-18.9,67.9-63,67.9
			s-62.1-22.7-62.1-67.8V287.9L345.1,287.9L345.1,287.9z"/>
		<path class="st0" d="M498.2,481.6l-9.3,70.7h-41.5l42.6-264.4h57.6l44.2,264.4h-42.6l-10.4-70.7H498.2L498.2,481.6z M534.1,444.1
			c-6-44.9-11.8-87.5-14.8-117.4h-1.5c-1.1,21.8-9.1,78.4-14.4,117.4H534.1L534.1,444.1z"/>
		<path class="st0" d="M652.2,434.1v118.2h-40.8V287.9h56.5c40.2,0,64,16.1,64,63.7v10.1c0,40.6-16.7,51-26.9,55.2
			c15.4,7.2,24.2,18.4,24.2,54.2c0,22.3-0.4,65.2,2.4,81.2h-39.4c-3.5-16-2.8-59.4-2.8-78.6c0-32.2-4.2-39.6-27.8-39.6L652.2,434.1
			L652.2,434.1z M652.2,400.4h9.3c21.6,0,29.5-8.1,29.5-36.9v-9.1c0-20.4-4.2-32.9-27.3-32.9h-11.5L652.2,400.4L652.2,400.4z"/>
		<path class="st0" d="M860.8,431.5h-58.1v83.3h67l-5.2,37.5H761.9V287.9H864v37.9h-61.3V394h58.1L860.8,431.5L860.8,431.5z"/>
	</g>
</g>
<polygon class="st1" points="200.1,170 341.5,29.2 348.6,70.6 308.1,151.6 "/>
<polygon class="st1" points="692.8,86.1 512.7,0 519.8,41.5 584.8,104.5 "/>
<path class="st1" d="M686.8,87.2l-204.2,34.8l-14.7,2.5l-41.3,7l-6.8,1.1l-212.1,36.1c-10.1,1.7-16.9,11.3-15.1,21.4l14.8,87.1
	c4.2,24.9,27.9,41.7,52.9,37.5l146.8-25c24.9-4.2,41.7-27.9,37.5-52.9l-9.4-55l41.3-7l9.4,55c4.2,24.9,27.9,41.7,52.9,37.5l146.8-25
	c24.9-4.2,41.7-27.9,37.5-52.9l-14.8-87.1C706.4,92.2,696.8,85.4,686.8,87.2L686.8,87.2z"/>
<path class="st0" d="M401.3,167.3l14.8,86.8c0.2,1.4-0.7,2.7-2.1,3l-170.8,29.1c-1.4,0.2-2.7-0.7-3-2.1l-14.8-86.8L401.3,167.3
	L401.3,167.3L401.3,167.3z"/>
<path class="st0" d="M672.5,119.8l14.8,86.8c0.2,1.4-0.7,2.7-2.1,3l-170.8,29.1c-1.4,0.2-2.7-0.7-3-2.1l-14.8-86.8L672.5,119.8
	L672.5,119.8z"/>
<circle class="st2" cx="598.8" cy="179.7" r="35.2"/>
<circle class="st2" cx="315" cy="226.7" r="35.2"/>
<circle class="st0" cx="598.8" cy="179.7" r="10"/>
<circle class="st0" cx="315.2" cy="226.3" r="10"/>
</svg>
